<?xml version="1.0" encoding="UTF-8"?>
<svg id="uuid-c329b385-b905-4259-ad09-c6437bd5d7c6" data-name="Capa 2" xmlns="http://www.w3.org/2000/svg" viewBox="0 0 942.48 942.48">
  <g id="uuid-82cda226-937e-452e-9317-3b998f440f70" data-name="Capa 1">
    <path d="M471.24,5.5C214.019,5.5,5.5,214.019,5.5,471.24s208.519,465.74,465.74,465.74,465.74-208.519,465.74-465.74S728.461,5.5,471.24,5.5Zm0,802.27c-185.86,0-336.53-150.67-336.53-336.53S285.38,134.71,471.24,134.71s336.53,150.67,336.53,336.53-150.67,336.53-336.53,336.53Z" style="fill: none; stroke: #fff; stroke-miterlimit: 10; stroke-width: 11px;"/>
    <g style="opacity: .25;">
      <path d="M797.128,545.176c-1.015,.745-2.063,1.373-3.198,1.694-3.452,.975-7.342,.284-11.012,.637-4.497,.433-8.961,1.203-13.045,1.772-.758-.645-1.508-1.496-2.44-2.028-1.768-1.009-3.622-1.877-5.476-2.727-1.807-.828-3.7-2.289-5.483-2.188-4.234,.24-5.87-1.813-6.018-5.492-.173-4.313-.04-8.638-.04-13.129h-3.11c-2.695-9.148-2.554-18.313-2.016-27.514,.077-1.318,.199-3.695-.208-3.811-3.256-.932-3.026-3.849-3.11-5.917-.307-7.558-.121-15.136-.121-22.964-1.939-.235-3.839-.465-6.004-.727-.101-1.687-.743-3.478-.183-4.735,1.634-3.67-.983-6.268-1.73-9.344-1.007-4.148-4.855-4.66-7.719-6.438-.655-.407-1.559-.432-2.18-.871-.565-.4-1.256-1.11-1.279-1.707-.137-3.554-.815-7.306,.071-10.624,1.067-3.994-.874-5.468-3.581-7.084-.796-.475-2.015-1.178-2.052-1.833-.201-3.545-.091-7.107-.089-10.663,0-1.291,0-2.581,0-3.831l-5.239,2.359c1.187,1.512,2.801,2.76,3.246,4.338,.58,2.055,.466,4.427,.129,6.572-.264,1.68-1.03,3.247-2.133,4.54-1.905,2.232-3.278,3.981-2.148,7.54,1.713,5.391,2.78,11.145-3.935,14.904-2.165,1.212-3.617,3.933-5.009,6.2-1.002,1.631-1.364,3.655-2.341,6.441,1.271,4.432,4.091,10.309-4.373,13.113,.624,1.152,1.384,1.912,1.402,2.689,.144,6.345,.301,12.697,.122,19.038-.069,2.436-.999,4.849-1.537,7.272-.482,4.741-.107,9.711,.061,14.689,.092,2.74-.634,5.578-.147,8.217,.706,3.825,.377,6.687-3.234,7.59,.383,6.084,.742,11.779,1.054,16.737-1.694,1.416-3.016,2.421-4.212,3.559-.693,.66-1.063,2.049-1.785,2.215-2.366,.543-4.83,.949-7.248,.906-4.054-.073-8.104-.513-12.152-.836-2.13-.17-2.794,.81-3.296,2.869-2.188,8.972-.854,18.055-1.171,27.079-.045,1.288,.363,2.603,.641,3.888,.543,2.51,1.678,4.115,4.693,3.313,.686-.183,2.087,.241,2.316,.757,1.326,2.993,2.841,6.128-.752,8.816,.976,.832,1.777,1.516,3.63,3.096-5.291,.653-9.424,1.386-13.586,1.618-4.619,.258-9.263,.059-13.915,.059l.387,2.316h-6.408l1.045,4.074c-1.031,.448-2.037,.886-3.05,1.327-.098,.618-.094,.589-.192,1.208,1.136,1,2.278,2.006,3.64,3.206-2.669,1.533-6.012,3.454-9.641,5.539-.402-2.061-.604-4.071-1.211-5.95-.662-2.049-1.511-4.091-2.63-5.922-.941-1.541-2.86-2.582-3.515-4.184-1.826-4.466-5.479-7.45-8.193-11.175-2.2-3.019-4.565-3.263-7.608-2.274-1.617,.525-3.185,1.206-4.813,1.689-2.766,.819-5.563,1.537-8.48,2.334-.147-3.981-3.345-3.093-6.282-2.428-1.838-4.408-5.509-7.454-8.585-7.103-3.623,.413-7.234,.93-10.765,1.391-.655,1.225-1.552,2.51-2.051,3.935-.615,1.752-1.663,3.869-1.167,5.386,1.075,3.288-.682,5.057-2.406,7.189-1.652,2.044-2.951,4.371-4.59,6.427-.643,.807-1.489,1.43-2.457,1.787-6.999,2.584-14.405-.004-21.649,1.688-1.904,.444-4.685,.712-7.076,.818-6.935,.307-13.871,.693-20.809,.763-1.712,.017-3.435-1.047-5.408-1.698-.642,.38-2.052,1.215-3.834,2.27-.529-5.652-1.358-6.943-5.5-9.832-.713-.497-1.431-1.203-1.772-1.977-.954-2.17-1.316-4.701-2.634-6.587-2.268-3.245-4.819-5.877-9.637-6.016-3.323-.096-6.811-2.134-9.805-3.983-3.835-2.369-5.478-2.438-8.262,1.059-.21,.264-.645,.348-1.356,.71-2.402-3.874-6.805-6.356-6.158-12.078,.457-4.049-3.313-6.147-7.306-4.599-1.968,.763-3.942,1.509-6.129,2.346l1.739,2.244c-3.832,5.477-9.192,4.253-14.196,3.899-.768-.054-1.992-1.765-2.026-2.744-.201-5.799-.677-11.68,.052-17.392,.606-4.749,1.104-8.879-.777-13.716-3.669-9.433-6.103-19.345-9.076-29.051-.102-.334-.5-.578-.755-.858-3.422,2.358-3.399,2.33-6.874-.514-1.011-.827-2.263-1.358-3.282-2.177-.881-.709-2.165-1.566-2.274-2.476-.522-4.355-.705-8.749-1.006-13.13-.045-.65,.189-1.616-.154-1.903-2.888-2.42-2.635-5.687-2.784-8.938-.043-.949-.971-1.857-1.493-2.784-.395,.95-.851,1.881-1.175,2.855-.844,2.541,1.109,5.502-1.402,7.906-.857,.82-1.337,2.52-1.245,3.762,.631,8.482-.919,16.074-7.928,21.808-1.06-1.524-2.012-2.89-3.418-4.91-.924,3.328-1.054,6.296-2.465,8.411-4.177,6.259-7.182,12.736-7.532,20.415-.238,5.216-2.034,6.223-6.593,5.171-1.214-2.256-2.218-4.123-3.223-5.99l-1.376,.317c-.149,1.437-.769,3.031-.353,4.28,.968,2.904-.355,3.455-2.744,3.42-1.293-.019-2.586-.003-4.331-.003-.288-3.745-.55-7.154-.843-10.955l-2.265-1.482c-.678,1.365-2.101,2.854-1.965,4.182,.835,8.112-1.387,10.305-9.078,8.509-1.183-2.258,2.901-5.447-1.124-7.048-1.119,1.066-2.174,2.071-3.498,3.332-1.298-4.051-2.43-7.426-3.431-10.84-.207-.706-.244-1.875,.176-2.286,3.313-3.247,.666-6.839,.86-10.262,.305-5.394-3.464-11.051,.955-15.983-1.538-1.683-3.404-3.026-4.313-4.846-3.234-6.469-1.514-13.371-1.205-20.123,.112-2.442-.256-5.464,1.012-7.172,2.208-2.974,.771-3.998-1.311-5.594-1.898-1.454-3.702-2.657-2.991-6.08,.728-3.506-.025-7.432-.665-11.08-1.007-5.739-5.878-8.938-9.749-12.401-5.74-5.134-5.147-11.649-4.425-17.721,.373-3.139,.268-5.066-1.696-7.227-4.861-5.348-3.733-10.696-1.747-14.706-.867-2.873-1.519-5.031-2.17-7.189-.474,3.435-.035,7.695-6.075,6.31,4.978,1.359,4.705,1.283,5.402,7.313,.076,.656,.099,1.318,.046,1.976-.238,2.948-.788,5.666-4.117,7.102-.7,.302-1.257,2.506-.89,3.447,2.428,6.212,1.086,12.495-1.167,17.972-1.668,4.053-6.025,7.111-9.492,10.274-1.989,1.815-3.218,3.232-1.758,5.991,.491,.927,.052,2.405-.121,3.608-.29,2.017-.707,4.016-1.146,6.436-1.6,.21-3.968,.521-6.762,.888,1.25,2.151,2.815,3.644,2.925,5.238,.553,7.982,.935,15.991,.93,23.99-.002,3.394-.226,7.497-6.091,6.62,1.22,1.848,2.825,3.185,2.906,4.608,.237,4.188-.205,8.41-.239,12.62-.032,3.831-3.277,7.88,.957,11.533,.656,.566,.177,2.798-.217,4.131-.472,1.599-1.516,3.019-2.127,4.589-.713,1.833-1.227,3.744-2.037,6.278,2.64,3.317,3.42,14.508,1.674,16.002,.384,6.398,.716,11.917,1.062,17.679-1.185,.117-2.206,.355-3.245,.221-1.671-.215-3.339-.473-5.024-.443-15.713,.285-15.623-1.998-15.988,7.985-.019,.518-.151,1.032-.282,1.887-1.572,.265-3.176,.536-5.177,.874-.159-2.408-.394-4.335-.397-6.263-.017-13.831,.053-27.663,.002-41.494-.015-4.046-5.45-7.951-9.498-7.025-4.382,1.002-5.385,.325-5.933-4.328-.269-2.283-1.079-3.657-3.828-3.27l-.587,4.668h-5.542l-1.217-2.348c-2.372,2.714-5.505,2.261-7.53-.454-4.086,1.729-7.326-.973-11.196-1.31,.69-.749,1.049-1.139,1.408-1.529-4.338-.382-1.244-3.769-2.303-5.551-4.085-1.059-8.233-2.203-12.417-3.193-2.788-.659-5.793-1.965-8.415-1.469-7.393,1.399-14.48,1.502-21.707-.954-2.356-.801-3.598-1.373-3.732-4.017-.071-1.393-.963-3.679-1.922-3.936-5.223-1.402-5.628-5.082-5.224-9.412,.052-.551-.265-1.137-.412-1.707-.281,.003-.562,.006-.842,.01l-.733,7.477c-2.126,.151-1.598,.113-3.724,.264l-1.362-5.592c-.428,.096-.856,.192-1.284,.288,.142,1.776,.284,3.552,.426,5.328-.367,.184-.734,.368-1.101,.553-.595-.924-1.604-1.803-1.708-2.779-.33-3.118-.272-6.275-.49-9.408-.046-.656-.631-1.274-.968-1.909-.3,.267-.719,.519-1.054,.782,13.995,172.994,158.807,309.026,335.406,309.026,158.894,0,292.048-110.128,327.348-258.214Zm-644.36-31.229c-.245,1.548-1.937,3.634-3.394,4.062-2.848,.837-3.366-.373-3.601-7.399,4.297-.75,7.421,.643,6.995,3.337Z" style="fill: #666;"/>
      <path d="M427.061,584.904c.332-9.791,.181-5.336,.513-15.127l.671,.003v15.2l-1.183-.076Z" style="fill: #666;"/>
    </g>
    <g>
      <path d="M514.508,285.539c5.878,2.242,11.449,4.396,17.044,6.487,2.188,.818,3.597,.234,3.213-2.377-.79-5.371-1.596-10.743-2.557-16.085-2.476-13.771-12.855-20.901-23.522-27.76-.777-.5-1.578-.962-2.266-1.647,5.239,.505,9.699,2.757,13.687,6.08,3.175,2.646,6.124,5.634,9.556,7.886,8.411,5.516,17.802,6.096,27.434,4.45,1.953-.334,3.263-.103,4.628,1.505,14.122,16.637,19.905,35.946,18.614,57.538-1.242,20.766-8.975,39.452-18.706,57.449-13.593,25.141-30.548,47.878-49.797,68.936-8.004,8.756-16.159,17.378-26.124,24.014-11.737,7.817-23.57,7.905-35.415,.298-2.606-1.674-5.16-3.482-7.504-5.501-18.445-15.88-33.986-34.396-48.272-53.979-12.96-17.765-24.172-36.577-32.189-57.142-5.599-14.362-8.604-29.224-7.626-44.704,1.12-17.722,6.951-33.587,18.965-46.949,1.249-1.39,2.382-1.907,4.344-1.549,12.633,2.304,24.148,.199,33.682-9.093,4.428-4.316,9.167-8.115,15.469-9.314,.447-.085,.902-.126,1.625,.04-19.742,9.896-29.514,25.568-28.276,48.106,7.267-.255,13.371-3.271,19.248-6.482,.966,0,2.031,.27,2.882-.042,8.811-3.223,15.886-8.825,21.696-16.112,.583-.732,1.158-1.47,1.746-2.198,.044-.055,.159-.053,.269-.086,.411,6.393,.822,12.79,1.279,19.91,1.187-1.003,1.683-1.423,2.271-1.919,.121,.27,.27,.483,.311,.714,1.961,11.135,7.443,20.364,15.227,28.386,1.582,1.63,2.742,1.693,4.375-.019,7.293-7.645,12.595-16.358,14.885-26.768,.139-.63,.309-1.252,.515-2.082,.57,.508,.997,.888,1.423,1.268,.307-.018,.614-.036,.92-.055,.496-6.372,.993-12.743,1.422-18.248,4.332,3.854,8.997,8.43,14.13,12.401,2.838,2.195,6.436,3.432,9.757,4.957,.532,.245,1.411-.265,1.64-.316Zm-145.118,12.852c.122,.813,.227,2.126,.525,3.393,.819,3.478,2.276,4.049,5.084,1.74,4.567-3.755,6.812-8.719,6.27-14.613-.137-1.488-1.417-3.629-2.653-4.046-1.254-.423-3.505,.495-4.614,1.561-3.178,3.054-4.351,7.118-4.613,11.966Zm5.194,39.126c1.062,3.25,1.794,6.041,2.897,8.675,.786,1.878,2.247,1.9,3.87,.64,4.371-3.392,6.197-12.961,3.287-17.595-1.782-2.838-4.552-3.268-6.317-.484-1.691,2.666-2.542,5.863-3.736,8.763Zm18.893-21.164c.235,1.567,.347,3.165,.73,4.695,.902,3.614,2.536,4.2,5.264,1.69,4.387-4.036,6.036-9.229,5.099-15.025-.237-1.467-1.719-3.387-3.049-3.824-1.133-.373-3.235,.732-4.266,1.802-2.798,2.903-3.533,6.707-3.778,10.662Zm159.892-26.342c.426,5.761,2.396,10.494,6.857,13.919,1.999,1.535,3.312,1.141,4.275-.949,2.289-4.971-.358-14.697-4.827-17.729-2.384-1.617-4.617-.987-5.647,1.707-.395,1.032-.479,2.182-.658,3.052Zm-23.015,69.368c.686,4.02,1.554,7.503,4.056,10.459,1.184,1.4,2.316,1.305,3.596,.131,3.928-3.604,4.626-14.397,1.168-18.495-1.821-2.158-4.186-2.376-5.624,.002-1.452,2.401-2.161,5.251-3.196,7.904Zm-22.715-56.595c-.512-3.858-1.057-7.468-3.683-10.373-2.306-2.551-5.046-2.115-6.504,.957-2.353,4.957-.148,13.984,4.19,17.363,1.641,1.278,3.126,1.145,3.879-.735,.927-2.315,1.431-4.8,2.117-7.212Zm-69.194-4.243c-.069-.843-.065-1.793-.239-2.71-.435-2.29-1.139-4.59-3.817-4.994-2.733-.413-4.043,1.697-5.012,3.761-2.238,4.766-2.116,9.658-.23,14.5,1.139,2.923,2.513,3.219,4.779,1.043,3.249-3.121,4.308-7.154,4.519-11.599Zm-46.227,60.989c1.305,3.362,2.445,6.783,3.963,10.027,.869,1.858,2.426,1.755,3.903,.317,4-3.892,4.498-14.265,.85-18.431-1.86-2.124-4.162-2.267-5.617,.155-1.348,2.245-1.966,4.928-3.099,7.932Zm17.67-24.079c.735,2.951,1.116,5.472,2.005,7.8,1.075,2.815,2.674,2.999,4.901,.916,3.724-3.484,5.49-11.987,3.154-16.542-.644-1.255-2.187-2.713-3.421-2.815-1.225-.101-3.194,1.089-3.758,2.241-1.327,2.709-2.011,5.732-2.881,8.401Zm115.078-.156c-.995-2.753-1.676-6.015-3.286-8.726-1.845-3.106-5.199-2.583-6.841,.657-2.5,4.932-.657,13.625,3.57,17.136,1.703,1.415,3.24,1.307,4.046-.701,.997-2.482,1.566-5.135,2.511-8.366Zm16.189-17.66c-.081-5.359-1.108-9.398-4.306-12.565-2.371-2.348-4.953-1.725-6.191,1.351-2.051,5.094,.976,14.377,5.606,17.166,1.684,1.015,3.139,.884,3.778-1.165,.581-1.863,.893-3.81,1.113-4.787Zm-42.803,44.326c1.17,2.981,2.293,6.309,3.786,9.463,.851,1.798,2.371,1.884,3.863,.35,3.734-3.838,4.529-13.386,1.431-17.709-1.997-2.786-5.211-2.747-6.74,.348-1.052,2.129-1.451,4.581-2.34,7.548Zm-6.924-26.73c-.891-2.748-1.437-5.448-2.666-7.79-.61-1.162-2.526-2.369-3.753-2.274-1.236,.095-2.79,1.551-3.437,2.807-2.449,4.751-1.084,12.541,2.576,16.401,1.856,1.957,3.459,1.962,4.594-.524,1.221-2.676,1.793-5.649,2.685-8.62Zm-66.411,26.798c1.184,3.073,2.225,6.332,3.693,9.385,.94,1.955,2.563,1.877,4.092,.268,3.598-3.788,4.378-13.156,1.414-17.518-1.876-2.759-4.975-2.924-6.576-.004-1.216,2.218-1.658,4.86-2.623,7.869Zm18.602-27.133c.856,3.025,1.422,5.874,2.479,8.528,1.095,2.749,2.461,2.86,4.665,.816,3.858-3.579,5.057-12.606,2.264-17.053-1.876-2.987-5.015-3.225-6.698-.159-1.31,2.386-1.828,5.205-2.71,7.868Zm-7.815,83.892c-1.007-2.674-1.856-5.861-3.415-8.651-.708-1.268-3.075-2.671-4.232-2.353-1.393,.384-2.944,2.385-3.303,3.945-1.35,5.868,.706,10.94,4.736,15.217,1.635,1.735,3.239,1.499,4.186-.741,.897-2.121,1.251-4.471,2.029-7.418Zm37.219-.343c-.635-2.765-.743-5.056-1.715-6.889-.778-1.467-2.616-3.292-3.967-3.279-1.37,.013-3.351,1.822-3.968,3.302-2.213,5.308-1.375,10.546,1.702,15.344,1.539,2.401,3.478,2.478,4.785-.028,1.444-2.769,2.232-5.881,3.164-8.45Zm25.833,1.067c.615,2.333,1.063,4.727,1.896,6.979,.702,1.897,2.124,2.143,3.816,.88,4.118-3.075,6.628-11.89,4.716-16.756-1.427-3.629-4.327-4.181-6.916-1.216-2.488,2.849-3.064,6.36-3.512,10.113Zm-54.849-29.29c.51,4.049,1.598,7.581,4.053,10.636,1.203,1.497,2.498,1.875,4.013,.313,3.677-3.792,3.768-14.56,.118-18.259-2.014-2.04-4.525-2.001-5.879,.503-1.123,2.077-1.562,4.524-2.305,6.806Zm47.011,.793c-.176-.115-.353-.229-.529-.344-.316-1.749-.235-3.72-1.056-5.186-.871-1.556-2.555-3.59-3.962-3.651-1.399-.061-3.564,1.776-4.226,3.29-2.223,5.089-1.852,10.293,.886,15.191,1.387,2.48,3.339,2.765,4.749,.339,1.744-3.001,2.79-6.408,4.138-9.639Zm68.366-53.399c-.95-2.838-1.461-5.782-2.86-8.214-2.096-3.645-5.433-3.211-7.23,.618-2.147,4.577-.392,13.105,3.382,16.573,1.6,1.471,3.205,1.548,4.06-.526,1.088-2.642,1.737-5.465,2.648-8.45Zm-85.944,24.765c-.731-2.852-.879-5.042-1.859-6.755-.821-1.435-2.617-3.197-3.974-3.192-1.362,.005-3.374,1.754-3.956,3.199-2.173,5.394-1.434,10.728,1.721,15.612,1.428,2.211,3.139,2.362,4.394,.091,1.635-2.959,2.611-6.281,3.675-8.955Zm-66.4,26.232c.057,3.606,1.156,7.628,3.935,11.052,2.18,2.686,4.046,2.438,5.384-.788,1.727-4.164,1.727-8.427,.156-12.655-1.35-3.633-3.598-5.762-5.684-5.485-2.23,.296-3.757,3.17-3.791,7.875Zm109.633,3.553c.793,2.56,1.423,5.186,2.431,7.659,.755,1.852,2.2,2.071,3.846,.735,3.897-3.164,6.04-12.826,3.775-17.266-1.519-2.979-3.953-3.357-6.33-.927-2.625,2.682-3.077,6.12-3.722,9.8Zm-43.491,59.531c-.652-2.701-.702-4.749-1.633-6.252-.936-1.512-2.767-3.447-4.17-3.419-1.418,.028-3.446,1.978-4.066,3.539-2.026,5.098-1.308,10.148,1.789,14.718,1.524,2.248,3.329,2.395,4.613,.057,1.579-2.877,2.488-6.121,3.467-8.643Z" style="fill: #fff;"/>
      <path d="M242.458,360.87c19.406,.672,37.369,6.305,54.207,15.944,10.061,5.759,19.283,12.662,27.504,20.734,8.909,8.747,16.869,18.293,23.3,29.177,10.077,17.053,16.825,35.099,18.847,54.843,1.02,9.955,.068,19.776-1.202,29.693-2.601,20.309-1.494,40.522,3.595,60.443,3.17,12.408,7.978,24.16,13.999,35.432,1.193,2.233,2.574,4.37,3.935,6.508,.39,.612,.928,1.369,1.548,1.553,3.169,.944,4.741,3.534,6.514,5.956,23.359,31.911,46.719,63.822,70.09,95.725,4.273,5.832,3.626,9.567-2.404,13.561-2.904,1.924-5.755,3.931-8.695,5.797-3.972,2.521-8.463,1.703-11.192-2.019-24.492-33.416-48.972-66.841-73.448-100.268-.386-.527-1.007-1.137-.974-1.676,.298-4.953-3.527-7.51-6.285-10.504-7.554-8.2-16.011-15.415-25.194-21.757-17.493-12.082-36.708-20.404-57.164-25.928-7.68-2.074-15.558-3.448-23.17-5.73-13.145-3.941-25.287-10.171-36.049-18.642-7.835-6.167-15.355-12.844-22.324-19.97-7.629-7.802-13.633-16.919-18.93-26.541-7.22-13.113-12.494-26.867-14.965-41.608-3.622-21.605-1.926-42.601,8.815-62.135,7.072-12.861,17.005-22.93,30.29-29.68,12.413-6.307,25.512-8.967,39.351-8.91Zm109.354,182.372c-11.148,14.17-25.262,23.53-42.603,28.423,25.142,11.015,47.353,25.899,65.732,46.429-13.564-23.148-20.922-48.099-23.129-74.852Zm-86.441-25.074c-4.361-.231-8.004-.424-11.647-.617,.012-.23,.023-.461,.035-.691,3.014,0,6.029-.051,9.041,.022,1.504,.036,2.241-.384,2.227-2.045-.056-6.866,.022-13.733-.104-20.597-.011-.622-1.122-1.743-1.74-1.756-6.769-.136-13.543-.057-20.314-.132-1.739-.019-2,.832-1.979,2.269,.055,3.667,.015,7.336,.015,11.004,0,3.454,0,6.907,0,10.534,4.022,.271,7.662,.516,11.301,.762-.018,.24-.035,.48-.053,.72h-11.055c0,7.597-.044,15.002,.088,22.404,.01,.554,1.262,1.534,1.962,1.557,6.668,.216,13.342,.25,20.013,.379,1.47,.028,2.252-.351,2.237-2.043-.063-7.133-.027-14.268-.027-21.772Zm-24.466-74.405c0,6.477-.076,12.669,.058,18.857,.03,1.373,.799,2.729,1.183,3.954-.356,.742-1.168,1.659-1.184,2.589-.111,6.581-.024,13.165-.081,19.747-.014,1.65,.485,2.369,2.244,2.366,6.486-.009,12.972,.054,19.457,.185,1.828,.037,2.472-.599,2.458-2.444-.049-6.488-.017-12.977,.103-19.464,.034-1.834-.526-2.434-2.402-2.418-5.544,.046-11.091-.097-16.636-.195-.629-.011-1.254-.202-1.881-.309,4.629-.615,9.187-.629,13.745-.612q7.4,.027,7.402-7.252c.001-4.948,0-9.896,0-15.004h-24.468Zm24.508-51.787c0-3.159,.009-6.053-.002-8.946-.026-7.182-.008-7.284-6.9-8.737-13.039-2.749-26.027-2.807-38.846,1.283-.858,.274-2.176,1.085-2.199,1.687-.18,4.84-.101,9.69-.101,14.61h23.169v-17.247c.312,.005,.625,.011,.937,.016v17.335h23.941Zm48.673,100.522c-.069,1.078-.153,1.899-.168,2.722-.12,6.675-.111,13.356-.407,20.024-.093,2.087,.481,2.598,2.427,2.623,6.952,.092,13.904,.277,20.852,.533,1.938,.071,2.366-.723,2.345-2.492-.081-7.054-.03-14.109-.051-21.164-.002-.713-.163-1.426-.264-2.247h-24.734Zm-98.651-1.473h24.359v-24.394c-7.75,0-15.325-.03-22.898,.07-.494,.007-1.391,1.008-1.398,1.556-.093,7.49-.063,14.981-.063,22.769Zm-24.558-48.434c7.49,0,14.714-.037,21.937,.026,1.809,.016,2.195-.811,2.193-2.415-.004-4.796,.125-9.591,.176-14.387,.028-2.599,.005-5.199,.005-8.106h-24.312v24.882Zm147.954,48.455v-23.654h-24.48v23.654h24.48Zm-123.97,1.484v23.489h24.918v-23.489h-24.918Zm98.533,49.425c7.516,0,14.93,.049,22.341-.065,.867-.013,2.242-.746,2.478-1.449,.592-1.761,.867-3.692,.909-5.563,.113-5.054,.039-10.112,.039-15.952-8.269,0-16.233-.028-24.195,.064-.529,.006-1.497,.926-1.504,1.432-.1,7.035-.068,14.071-.068,21.533Zm-47.782-124.514c0-7.591,.042-15.177-.095-22.76-.009-.504-1.364-1.381-2.117-1.407-4.128-.141-8.263-.071-12.396-.073-3.076-.001-6.151,0-9.812,0,0,7.748-.039,15.139,.075,22.528,.009,.579,1.068,1.629,1.652,1.638,7.403,.112,14.808,.074,22.693,.074Zm-.003,25.257c0-7.611,.038-14.823-.07-22.033-.009-.588-.994-1.642-1.56-1.667-7.029-.301-14.064-.496-21.099-.558-.602-.005-1.732,1.12-1.744,1.737-.13,6.947-.128,13.898-.021,20.846,.009,.566,1.047,1.594,1.618,1.602,7.399,.109,14.801,.072,22.876,.072Zm-49.127-24.469c-.247,7.596-.541,15.18-.641,22.767-.007,.547,1.389,1.579,2.15,1.595,6.58,.139,13.164,.053,19.745,.138,1.708,.022,2.323-.524,2.285-2.261-.095-4.324-.03-8.651-.029-12.976,0-2.973,0-5.947,0-9.263h-23.51Zm-.907-25.24c-7.59,0-14.913,0-22.236,0-2.166,0-2.622,1.352-2.613,3.182,.024,4.798-.002,9.596-.007,14.394-.002,1.84,0,3.68,0,6.05,6.724,0,13.016-.16,19.295,.05,5.173,.173,5.694,1.476,5.582-5.391-.096-5.906-.02-11.815-.02-18.284Zm-1.183,98.006c0-7.734,.042-15.309-.092-22.882-.009-.512-1.324-1.408-2.056-1.434-4.033-.142-8.074-.07-12.112-.071-3.056,0-6.112,0-9.281,0v24.386h23.54Zm75.586,1.41v25.642c7.151,0,14.09,.041,21.025-.087,.492-.009,1.359-1.245,1.381-1.931,.224-7.239,.356-14.483,.361-21.726,0-.632-1.068-1.805-1.657-1.816-6.952-.128-13.908-.082-21.11-.082Zm-.021-49.624c7.614,0,14.941-.023,22.269,.015,1.956,.01,1.698-1.394,1.742-2.543,.174-4.506,.307-9.014,.412-13.523,.052-2.211,.009-4.424,.009-6.917h-24.432v22.967Zm-.19,48.636c7.345,0,14.282-.01,21.218,.006,1.94,.004,2.015-1.432,2.048-2.725,.163-6.38,.218-12.762,.385-19.142,.045-1.726-.674-2.348-2.33-2.339-6.486,.036-12.972-.033-19.456,.094-.633,.012-1.775,1.089-1.785,1.687-.124,7.315-.081,14.632-.081,22.419Zm-49.667-98.233c-5.688,0-11.209,.006-16.731-.002-6.144-.009-6.31-.021-6.536,5.951-.219,5.785-.047,11.584-.047,17.73h23.314v-23.68Zm48.826,24.614c0-7.491,.035-15.098-.065-22.703-.008-.633-.92-1.79-1.427-1.799-6.836-.121-13.675-.081-20.821-.081,0,7.953-.025,15.55,.058,23.146,.005,.484,.842,1.369,1.301,1.375,6.744,.09,13.49,.062,20.953,.062Zm-.318,99.191c0-7.694,.04-15.39-.091-23.082-.009-.513-1.302-1.398-2.033-1.436-3.098-.163-6.21-.071-9.317-.072-3.632,0-7.265,0-10.957,0v24.591h22.398Zm26.001-98.567c0-4.179,.075-8.211-.057-12.236-.03-.906-.56-2.041-1.24-2.64-3.423-3.014-6.882-6.004-10.526-8.739-1.237-.929-3.02-1.329-4.61-1.54-1.94-.257-3.946,.038-5.911-.089-1.866-.121-2.477,.616-2.439,2.436,.09,4.228,.028,8.458,.028,12.688,0,3.257,0,6.514,0,10.12h24.755Zm-25.997,48.778c-7.288,0-14.126-.039-20.961,.082-.493,.009-1.368,1.177-1.384,1.824-.174,6.756-.192,13.516-.295,20.274-.021,1.37,.37,2.083,1.903,2.072,6.293-.048,12.587,.031,18.877-.098,.632-.013,1.769-1.112,1.779-1.723,.125-7.313,.081-14.628,.081-22.431Zm-48.806-1.397v-22.372c-7.703,0-15.199-.03-22.692,.073-.465,.006-1.296,1.052-1.313,1.633-.186,6.288-.287,12.58-.267,18.87,.002,.6,.97,1.71,1.503,1.718,7.496,.114,14.995,.077,22.768,.077Zm.049,75.839v-24.354h-25.618c0,3.52-.115,7.082,.068,10.628,.057,1.096,.664,2.43,1.465,3.174,2.803,2.602,5.733,5.082,8.754,7.428,1.589,1.234,3.375,2.705,5.236,2.989,3.207,.489,6.543,.136,10.094,.136Zm50.119-75.218c6.067,0,11.883,0,17.699,0q5.584,0,5.782-5.474c.021-.562,.145-1.122,.146-1.683,.012-5.052,.007-10.103,.007-15.333h-23.634v22.49Zm-23.564,51.896c0,7.441-.045,14.819,.099,22.195,.01,.5,1.42,1.36,2.205,1.391,3.75,.147,7.51,.066,11.266,.066h8.416v-23.652h-21.985Zm48.102-74.413c0,6.81,.107,13.284-.057,19.752-.058,2.313,.738,2.923,2.89,2.851,6.476-.219,12.956-.29,19.434-.442,.713-.017,1.423-.18,2.079-.268v-21.893h-24.346Zm-123.634-.528v22.417c7.483,0,14.787,.037,22.089-.082,.496-.008,1.376-1.174,1.395-1.822,.177-6.195,.181-12.395,.295-18.592,.027-1.504-.638-1.964-2.038-1.935-2.723,.056-5.448,.014-8.173,.014-4.48,0-8.961,0-13.567,0Zm121.114,98.423v-22.888h-22.011v22.888h22.011Zm-45.44-122.466c0,7.273-.037,14.58,.077,21.885,.008,.53,1.111,1.485,1.718,1.496,6.199,.111,12.402,.111,18.602-.007,.571-.011,1.603-1.041,1.611-1.61,.111-7.124,.073-14.25,.073-21.764h-22.081Zm0,47.064c6.895,0,13.731,.047,20.563-.094,.516-.011,1.409-1.338,1.439-2.081,.15-3.76,.073-7.528,.075-11.294,.001-2.974,0-5.949,0-9.189-7.11,0-13.777-.034-20.442,.062-.552,.008-1.558,.88-1.565,1.363-.103,6.839-.07,13.68-.07,21.233Zm-53.045,25.639c-7.156,0-14.201-.03-21.245,.054-.604,.007-1.688,.745-1.72,1.201-.249,3.576-.129,7.063,2.275,10.137,2.663,3.406,5.061,7.019,7.632,10.499,.481,.65,1.22,1.534,1.872,1.562,3.618,.152,7.246,.073,11.186,.073v-23.525Zm101.873-71.9v22.474h24.257c-.698-3.16-.739-6.295-2.07-8.722-2.423-4.418-5.576-8.442-8.52-12.562-.423-.591-1.368-1.115-2.087-1.138-3.649-.114-7.303-.053-11.579-.053Zm-48.51,122.659c0,4.998,.097,9.587-.042,14.169-.066,2.191,.94,3.091,2.885,3.319,5.656,.662,11.309,1.354,16.978,1.871,.589,.054,1.82-.973,1.835-1.522,.141-5.359,.137-10.725,.017-16.085-.013-.595-1.002-1.666-1.553-1.675-6.664-.117-13.331-.076-20.119-.076Zm23.114,0v20.165c6.756-1.288,13.15-2.478,19.527-3.745,1.538-.306,2.279-1.328,2.261-3.008-.04-3.857,.134-7.718,.006-11.571-.021-.632-1.12-1.749-1.739-1.761-6.581-.129-13.165-.08-20.057-.08Zm-100.475-126.183c-1.732,.181-3.187,.329-4.641,.486-2.269,.245-5.231-.279-6.617,.959-1.469,1.312-1.665,4.266-2.019,6.564-.877,5.705-1.526,11.445-2.293,17.371h15.57v-25.38Zm150.633,75.73c0,7.352-.018,14.187,.005,21.022,.021,6.371-.707,4.477,5.361,5.237,1.094,.137,2.296,.099,3.335-.223,.869-.269,2.038-.92,2.279-1.66,2.361-7.251,3.651-14.707,3.585-22.348-.006-.681-.983-1.917-1.546-1.939-4.203-.166-8.414-.09-13.019-.09Zm.063-25.385v24.071h14.437c.349-7.924-1.006-15.454-2.824-22.918-.118-.485-1.03-1.084-1.59-1.102-3.261-.105-6.528-.051-10.022-.051Zm-150.656-23.581c-4.807,0-9.297-.058-13.782,.084-.482,.015-1.362,1.226-1.321,1.833,.311,4.59,.575,9.204,1.297,13.74,1.107,6.947,1.258,6.923,8.422,6.883,1.224-.007,2.475,.134,3.661-.08,.631-.114,1.642-.834,1.649-1.293,.106-6.938,.073-13.879,.073-21.167Zm75.963,99.375c-7.987,0-15.398-.012-22.81,.028-.479,.003-1.158,.281-1.398,.654-1.12,1.741,.087,6.221,2.01,7.047,5.846,2.509,11.735,4.921,17.639,7.294,1.483,.596,3.082,.901,4.559,1.321v-16.344Zm22.996-150.792c1.227-5.262,.871-6.134-3.575-8.354-2.173-1.085-4.377-2.126-6.628-3.034-3.75-1.512-7.549-2.9-11.547-4.424v15.812h21.75Zm24.599,165.871c8.811-3.16,16.284-7.83,22.746-14.912h-22.746v14.912Zm-97.205-180.992c-8.662,3.222-15.894,8.206-22.968,15.01h22.968v-15.01Zm-38.49,90.032c.352,1.531,.478,2.565,.827,3.516,2.223,6.058,4.619,12.056,6.691,18.165,.83,2.447,2.191,2.727,4.615,2.064,0-7.462,.025-14.968-.065-22.472-.005-.43-.934-1.199-1.452-1.216-3.371-.111-6.748-.057-10.616-.057Zm174.52-1.057c-2.981-7.575-5.628-14.422-8.439-21.2-.215-.518-1.602-.748-2.429-.716-.328,.012-.861,1.094-.88,1.702-.093,3.006-.045,6.016-.046,9.024,0,3.719,0,7.438,0,11.191h11.794Zm-162.076-69.371l-.778-.134c-4.381,5.843-8.013,12.084-10.358,19.498,3.27,.173,6.234,.438,9.193,.394,.573-.008,1.562-1.184,1.617-1.88,.253-3.175,.271-6.372,.318-9.561,.041-2.772,.009-5.545,.009-8.317Zm150.541,123.166v18.228c4.478-5.88,7.556-11.638,9.811-18.228h-9.811Zm-23.996-113.274l-.868,.36c0,3.564-.062,7.13,.066,10.689,.019,.542,.899,1.486,1.412,1.508,3.231,.139,6.47,.07,9.707,.07,.142-.256,.284-.512,.426-.767-3.581-3.953-7.162-7.907-10.743-11.861Zm-113.91,110.621c2.427,2.78,4.293,4.982,6.233,7.115,1.238,1.361,2.586,2.622,4.346,4.393v-11.509h-10.579Zm37.48,31.941v-5.839h-9.303c3.488,2.189,6.207,3.896,9.303,5.839Zm57.657-156.975c.073-.245,.145-.49,.218-.735-2.391-1.482-4.783-2.963-7.612-4.716v5.451h7.394Zm-111.129,100.226c.955,1.639,1.719,2.949,2.755,4.727,.529-4.858,.462-4.98-2.755-4.727Z" style="fill: #fff;"/>
      <path d="M572.644,532.469c-.931-9.049-1.776-18.108-2.813-27.144-2.031-17.697,.343-34.847,6.378-51.513,6.055-16.72,14.71-31.888,26.542-45.315,12.486-14.17,26.897-25.76,43.78-34.129,11.409-5.656,23.479-9.395,36.205-10.985,13.72-1.714,27.134-.712,40.145,3.998,21.718,7.861,36.431,22.934,44.292,44.503,9.175,25.176,6.57,50.117-2.734,74.647-5.559,14.655-13.327,28.1-23.527,40.078-14.759,17.333-32.28,31.091-53.467,39.56-8.548,3.417-17.717,5.39-26.715,7.552-19.986,4.804-38.813,12.351-56.163,23.36-11.962,7.59-22.86,16.515-32.214,27.26-2.118,2.433-4.549,4.464-4.416,8.09,.024,.642-.564,1.366-.998,1.958-24.3,33.198-48.609,66.39-72.934,99.571-3.03,4.133-7.492,4.85-11.824,1.985-3.141-2.078-6.275-4.166-9.394-6.275-4.323-2.924-5.161-7.219-2.101-11.401,24.237-33.129,48.499-66.239,72.758-99.351,.387-.528,.74-1.328,1.259-1.476,4.788-1.362,6.331-5.732,8.356-9.375,6.996-12.584,12.133-25.931,15.261-40.014,2.599-11.698,3.8-23.55,4.325-35.584Zm-11.567,86.117c18.272-20.42,40.401-35.209,65.42-46.203-17.28-4.842-31.33-14.152-42.398-28.276-2.247,26.629-9.496,51.455-23.022,74.478Zm133.411-173.631c-8.02,0-15.44-.043-22.857,.091-.523,.009-1.453,1.313-1.467,2.028-.111,5.927,0,11.857-.073,17.785-.022,1.832,.6,2.495,2.45,2.44,4.795-.143,9.595-.14,14.393-.188,1.398-.014,2.796-.002,4.194-.002-.002,.269-.004,.538-.006,.806-.676,.079-1.352,.214-2.029,.227-5.173,.095-10.352,.342-15.517,.171-2.737-.091-3.304,.889-3.23,3.381,.18,6.018,.212,12.047,.072,18.066-.055,2.358,.843,2.87,2.963,2.814,6.112-.16,12.228-.229,18.342-.182,2.027,.016,2.852-.513,2.809-2.694-.123-6.303,.018-12.611-.101-18.915-.021-1.102-.799-2.19-1.268-3.388,.284-.497,1.236-1.4,1.254-2.321,.13-6.564,.069-13.132,.069-20.12Zm23.5-51.446c0-4.909,.096-9.504-.093-14.087-.032-.771-1.161-1.905-2.006-2.175-14.555-4.658-29.18-3.861-43.793-.268-.743,.183-1.851,1.078-1.869,1.669-.151,4.941-.086,9.889-.086,15.007,7.617,0,14.851-.024,22.085,.018,1.695,.01,1.72-1.025,1.714-2.232-.023-4.233-.04-8.466-.028-12.699,.002-.833,.146-1.666,.224-2.498,.315,.019,.629,.038,.944,.057v17.208h22.909Zm-121.077,125.601c1.896,0,3.65,.022,5.404-.004,5.914-.088,11.828-.201,17.742-.286,1.345-.019,2.318-.102,2.214-1.989-.226-4.121-.214-8.257-.255-12.387-.035-3.54-.007-7.081-.007-10.801h-25.098v25.468Zm123.014-50.794c-.694-.248-.957-.425-1.219-.423-7.236,.068-14.474,.111-21.706,.326-.548,.016-1.489,1.259-1.515,1.959-.148,3.946-.072,7.901-.072,11.852,0,3.344,0,6.689,0,10.018h24.512v-23.733Zm.42-49.18c0,7.971-.024,15.651,.059,23.329,.005,.469,.853,1.329,1.316,1.334,7.491,.084,14.984,.06,22.614,.06v-24.722h-23.988Zm-98.546,49.529h-24.783v23.682c7.871,0,15.482,.042,23.091-.084,.574-.009,1.608-1.2,1.619-1.855,.118-7.133,.074-14.269,.074-21.742Zm98.571,48.299c.226-.686,.389-.946,.385-1.203-.106-6.846-.269-13.692-.323-20.538-.015-1.886-1.169-1.802-2.435-1.798-6.292,.017-12.584,.018-18.875,.045-1.174,.005-2.347,.105-3.453,.158v23.337h24.7Zm-26.159-122.194c-8.078,0-15.485-.036-22.889,.083-.49,.008-1.327,1.175-1.374,1.847-.17,2.434-.072,4.886-.073,7.332-.001,4.953,0,9.905,0,14.915,7.772,0,15.176,.046,22.577-.086,.596-.011,1.613-1.206,1.675-1.917,.212-2.427,.085-4.884,.085-7.329,0-4.85,0-9.701,0-14.843Zm-71.804,148.028c0-6.969-.083-13.53,.046-20.087,.044-2.221-.618-2.968-2.87-2.887-6.847,.248-13.701,.369-20.553,.403-1.881,.009-2.38,.67-2.371,2.47,.026,5.255-.18,10.51-.186,15.765-.003,2.303,1.091,4.226,3.537,4.278,7.399,.159,14.804,.058,22.397,.058Zm71.936-98.928c0-7.355-.093-14.393,.052-21.425,.049-2.353-.829-2.879-2.965-2.784-6.477,.288-12.96,.471-19.442,.587-1.622,.029-2.144,.64-2.116,2.18,.124,6.866,.185,13.733,.288,20.599,.004,.255,.2,.506,.342,.844h23.842Zm1.281-24.245v24.071h23.372v-24.071h-23.372Zm48.797,48.509h-23.152v23.899h23.152v-23.899Zm-50.273,74.33v-23.493h-23.751v23.493h23.751Zm25.545-147.909c0,7.654-.034,14.695,.023,21.736,.015,1.817,1.246,2.182,2.891,2.098,4.217-.216,8.439-.337,12.661-.426,2.973-.063,5.949-.012,9.202-.012,0-7.39,.087-14.23-.116-21.062-.024-.802-1.629-2.208-2.529-2.231-7.309-.183-14.624-.103-22.132-.103Zm-49.212,111.211c0,3.383,.034,6.767-.016,10.149-.021,1.434,.514,2.026,1.989,1.979,6.62-.211,13.241-.392,19.863-.509,1.747-.031,2.213-.819,2.198-2.442-.062-6.39-.065-12.781,0-19.171,.017-1.645-.43-2.358-2.211-2.334-6.577,.088-13.157,.085-19.735,.035-1.596-.012-2.151,.573-2.114,2.145,.078,3.381,.024,6.766,.027,10.149Zm-47.294-12.253c0,7.249-.003,14.007,.001,20.765q.003,4.526,4.297,4.438c.47-.01,.94-.01,1.41-.01,5.518,0,11.036,0,16.907,0,0-8.318,.024-16.089-.061-23.859-.005-.449-.881-1.271-1.36-1.277-7.026-.083-14.054-.057-21.195-.057Zm95.234-98.637h-23.022v23.417h23.022v-23.417Zm-96.569,26.351v22.595h23.712v-22.595h-23.712Zm-25.13,46.415c7.86,0,15.35,.043,22.837-.085,.572-.01,1.61-1.226,1.608-1.88-.015-6.287-.155-12.575-.426-18.856-.026-.615-1.153-1.682-1.784-1.694-6.762-.126-13.528-.12-20.291-.022-.655,.01-1.853,.871-1.861,1.354-.123,6.833-.084,13.67-.084,21.182Zm72.576,50.33v-24.454c-7.138,0-14.08-.043-21.018,.098-.46,.009-1.267,1.417-1.278,2.183-.1,6.87-.067,13.742-.043,20.613,.002,.612,.217,1.224,.28,1.559h22.059Zm-23.489-49.48c-7.531,0-14.574-.047-21.614,.082-.623,.011-1.685,1.135-1.75,1.817-.184,1.942,.082,3.922,.101,5.889,.042,4.42,.015,8.842,.073,13.262,.022,1.713,.376,3.073,2.684,3.034,6.206-.107,12.416,.006,18.622-.099,.636-.011,1.796-.895,1.804-1.388,.117-7.407,.081-14.815,.081-22.596Zm1.134,11.914c0,3.201,.101,6.406-.037,9.601-.086,2.002,.647,2.604,2.597,2.57,5.741-.101,11.488-.146,17.226,.018,2.34,.067,2.869-.794,2.812-2.938-.169-6.302-.202-12.609-.196-18.913,.001-1.626-.395-2.396-2.205-2.365-6.024,.104-12.05,.14-18.074,.059-1.858-.025-2.196,.762-2.151,2.366,.089,3.198,.026,6.401,.028,9.602Zm.043-85.469v24.374h21.643v-24.374h-21.643Zm48.492,147.543c3.601,0,6.966,.062,10.326-.046,.769-.025,1.623-.499,2.26-.995,3.163-2.462,6.373-4.882,9.344-7.563,1.449-1.308,3.176-3.039,3.437-4.779,.533-3.556,.16-7.248,.16-10.757h-25.527v24.142Zm-49.738-122.661c0-8.087,.042-15.604-.075-23.118-.01-.654-1.008-1.78-1.653-1.862-5.897-.751-11.285,.14-15.554,4.897-1.725,1.922-3.951,3.387-5.878,5.139-.589,.535-1.32,1.32-1.339,2.009-.122,4.367-.062,8.74-.062,12.935h24.559Zm49.631,47.187c7.905,0,15.402,.036,22.897-.078,.522-.008,1.468-1.129,1.471-1.736,.026-6.203-.052-12.408-.268-18.606-.022-.621-1.134-1.718-1.751-1.726-6.673-.081-13.348,.027-20.022,.044-1.358,.003-2.368,.102-2.351,1.904,.061,6.575,.024,13.151,.024,20.197Zm25.558-22.126v21.965h23.426v-21.965h-23.426Zm-73.978,74.498c0,7.48-.052,14.618,.098,21.753,.012,.573,1.403,1.582,2.173,1.601,5.646,.138,11.3-.043,16.944,.131,2.428,.075,3.109-.873,3.106-3.083-.006-4.516,.15-9.033,.213-13.55,.032-2.312,.006-4.624,.006-6.852h-22.539Zm-1.163-51.719c0-7.29-.032-14.043,.021-20.795,.015-1.846-1.097-1.843-2.405-1.839-5.54,.019-11.079,.008-16.619,.008h-4.481c0,7.36-.033,14.198,.064,21.034,.008,.537,.912,1.516,1.41,1.523,7.204,.1,14.41,.068,22.01,.068Zm22.856-23.755v-23.202c-6.869,0-13.44-.05-20.008,.085-.589,.012-1.597,1.19-1.649,1.883-.197,2.622-.08,5.267-.08,7.903,0,4.396,0,8.791,0,13.33h21.737Zm-44.943,76.008v22.718h21.878v-22.718h-21.878Zm45.238-52.566c0-7.343,.047-14.101-.094-20.855-.01-.504-1.355-1.391-2.092-1.405-5.835-.111-11.675,.011-17.511-.085-1.938-.032-2.375,.746-2.34,2.508,.095,4.8,.038,9.603,.039,14.405q.002,5.696,5.586,5.445c1.222-.053,2.448-.013,3.672-.013,4.223,0,8.446,0,12.74,0Zm-48.688-23.432c0-7.231,.033-14.151-.066-21.069-.007-.518-.939-1.454-1.459-1.468-6.322-.166-12.976-.999-15.996,6.757-.292,.749-1.066,1.299-1.55,1.987-2.877,4.093-5.655,8.224-4.066,13.793h23.136Zm101.6,72.735c3.746,0,7.104,.071,10.456-.056,.715-.027,1.62-.609,2.068-1.211,2.911-3.916,5.691-7.93,8.572-11.869,1.993-2.725,1.826-5.832,1.629-8.913-.033-.517-.989-1.39-1.527-1.398-7.102-.094-14.207-.063-21.198-.063v23.51Zm-53.226,27.039c-6.701,0-13.349-.042-19.994,.075-.569,.01-1.592,1.063-1.605,1.65-.123,5.352-.111,10.709-.001,16.062,.011,.543,.981,1.572,1.415,1.525,6.21-.664,12.411-1.425,18.59-2.327,.612-.089,1.507-1.239,1.525-1.917,.132-4.87,.07-9.745,.07-15.068Zm-22.962-.015c-6.461,0-12.576,.125-18.681-.058-2.685-.081-3.502,.854-3.229,3.404,.199,1.862,.037,3.761,.057,5.644,.088,8.174-.304,6.66,6.608,8.414,4.904,1.245,10.044,1.559,15.246,2.313v-19.718Zm100.088-125.142v24.789h14.926c.062-8.015-1.113-15.592-3.194-23.033-.189-.677-.995-1.652-1.552-1.678-3.344-.158-6.699-.078-10.18-.078Zm-150.245,74.901c-4.417,0-8.538-.078-12.65,.086-.603,.024-1.655,1.191-1.662,1.838-.089,7.751,1.323,15.29,3.61,22.67,.174,.562,.903,1.332,1.401,1.353,3.047,.126,6.102,.063,9.302,.063v-26.01Zm-14.564-1.135c4.851,0,9.149,.064,13.44-.083,.521-.018,1.427-1.162,1.437-1.796,.107-6.664,.125-13.332-.018-19.994-.015-.691-1.161-1.859-1.884-1.944-2.598-.308-5.249-.39-7.86-.235-.764,.045-1.929,1.051-2.114,1.81-.838,3.454-1.545,6.957-2.006,10.481-.493,3.769-.657,7.58-.995,11.761Zm164.89-47.616v22.527c3.654,0,7.117,.095,10.567-.081,.687-.035,1.808-1.038,1.904-1.712,.902-6.303,1.665-12.628,2.322-18.961,.056-.535-.926-1.678-1.452-1.694-4.396-.138-8.797-.078-13.342-.078Zm-75.845,115.042c.659-.08,1.51-.016,2.228-.296,6.105-2.379,12.136-4.957,18.293-7.187,3.281-1.188,4.062-3.291,3.83-6.467-.131-1.782-.775-2.24-2.392-2.202-3.665,.087-7.332,.067-10.999,.077-3.534,.01-7.067,.002-10.961,.002v16.073Zm-1.101-182.288c-6.641,2.832-12.668,5.535-18.803,7.965-3.169,1.255-3.857,3.518-3.312,6.421,.132,.701,1.115,1.761,1.726,1.774,6.189,.132,12.383,.115,18.574,.028,.61-.009,1.725-.747,1.736-1.17,.125-4.741,.079-9.487,.079-15.019Zm50.622,1.411v14.464h22.249c-3.938-5.19-16.837-13.469-22.249-14.464Zm-119.459,165.039c6.525,7.063,13.962,11.703,22.596,14.742v-14.742h-22.596Zm145.598-52.163c2.353,.678,3.802,.414,4.581-2.018,.764-2.384,2.121-4.573,2.96-6.939,1.651-4.657,3.123-9.377,4.869-14.68-4.133,0-7.585-.053-11.032,.061-.474,.016-1.315,.856-1.32,1.321-.084,7.418-.059,14.837-.059,22.253Zm-161.529-24.714h11.536c0-5.874,.074-11.493-.047-17.109-.035-1.616-.235-4.338-1.047-4.628-2.831-1.011-2.9,2.046-3.544,3.604-2.376,5.755-4.455,11.632-6.898,18.132Zm161.526-69.637c-.212,.786-.384,1.116-.378,1.444,.094,5.731,.247,11.461,.298,17.193,.016,1.777,1.078,2.035,2.404,1.933,2.699-.208,5.392-.509,8.459-.808-2.507-7.165-5.879-13.615-10.782-19.762Zm-151.247,140.805c.341-.145,.682-.29,1.023-.435v-17.105h-10.347c3.337,6.276,6.331,11.908,9.324,17.54Zm25.496-117.944v-13.083c-4.136,4.608-7.681,8.557-11.744,13.083h11.744Zm102.315,97.734v11.639c3.729-4.1,6.929-7.62,10.584-11.639h-10.584Zm-26.859,31.847c3.142-2.011,5.862-3.752,8.582-5.492-.088-.169-.176-.337-.264-.506h-8.318v5.998Zm-49.925-161.794c-2.918,1.836-5.362,3.374-7.806,4.911,.121,.182,.241,.364,.362,.547h7.444v-5.458Zm100.649,109.768c.915-1.687,1.654-3.047,2.484-4.577-3.119-.185-3.231,.035-2.484,4.577Z" style="fill: #fff;"/>
      <path d="M537.242,585.915c-.014,38.667-31.523,70.474-69.781,70.442-37.859-.032-69.892-31.964-69.922-69.569-.031-39.519,31.859-70.226,69.776-70.506,38.336-.283,69.94,31.485,69.927,69.634Zm-69.245,12.569c.443,.116,.708,.248,.971,.245,15.701-.163,31.164-1.863,46.047-7.233,6.073-2.191,11.669-5.198,16.482-9.575,1.36-1.236,1.907-2.551,1.633-4.461-1.485-10.333-5.101-19.821-11.005-28.422-1.238-1.804-2.676-3.47-4.174-5.395-1.785,5.327-5.667,7.811-9.85,9.844-11.653,5.662-24.17,7.486-36.949,8.051-1.08,.048-2.159,.111-3.137,.161v9.579c9.205-.805,18.15-1.588,27.27-2.385,.185,.607,.416,1.364,.87,2.854-9.579,.919-18.79,1.802-28.147,2.699v10.595c9.201,1.143,26.969-1.87,47.233-7.966,.251,.321,.573,.656,.801,1.045,.219,.373,.343,.802,.608,1.451-15.601,6.834-31.981,8.507-48.653,8.949v9.965Zm.049-45.185v5.475c5.087-.445,10.048-.676,14.948-1.35,9.179-1.262,18.194-3.281,26.23-8.175,7.306-4.45,7.578-7.814,1.097-13.351-10.459-8.935-22.666-13.963-36.264-15.687-2-.254-4.024-.31-6.035-.457v20.567c5.353-.772,10.432-1.505,15.658-2.258,.255,.699,.531,1.457,1.024,2.807-5.703,.865-11.14,1.69-16.686,2.531v5.842c9.562-.114,18.646-1.715,27.513-5.122,.448,.961,.786,1.686,1.244,2.67-1.855,.701-3.46,1.558-5.169,1.91-7.715,1.587-15.46,3.031-23.56,4.596Zm-.102,58.79c10.332,.906,32.164-2.03,44.277-5.869,6.87-2.177,13.355-5.096,18.889-9.825,.763-.652,1.815-1.456,1.925-2.295,.398-3.025,.45-6.095,.655-9.531-19.821,15.093-42.804,16.274-65.898,17.589,0,2.768-.009,5.294,.006,7.82,.004,.643,.086,1.285,.146,2.11Zm64.078-12.005c-19.45,13.166-41.697,14.544-64.013,15.449v9.168c.666,.072,1.135,.202,1.588,.16,9.639-.888,19.331-1.413,28.896-2.808,9.24-1.348,17.995-4.385,26.198-9.177,5.163-3.016,6.686-7.429,7.33-12.793Zm-64.066,36.806c5.213-.298,10.254-.446,15.268-.903,11.761-1.072,23.216-3.337,34.021-8.442,5.179-2.447,6.852-7.236,9.211-11.722-18.248,10.325-38.362,11.615-58.5,12.45v8.617Zm-.137,10.504c9.338,.058,18.056-1.055,26.756-2.833,8.135-1.663,14.281-6.264,19.444-11.453-7.171,1.655-14.746,3.824-22.471,5.067-7.75,1.247-15.648,1.571-23.729,2.323v6.896Zm-.945-74.289c.245-2.291,.245-2.299-2.636-2.469-16.096-.949-31.754-3.653-46.21-11.33-.585-.311-1.57,.132-2.369,.223,.032,.333,.064,.667,.097,1,15.867,8.896,33.268,11.579,51.118,12.576Zm-26.906-46.713c-4.04,1.047-4.256,5.12-1.943,7.445,.725,.729,1.467,1.483,2.327,2.028,7.806,4.944,16.597,6.226,25.576,6.717,.415,.023,.867-.637,1.301-.979-.397-.392-.752-1.063-1.197-1.128-1.855-.272-3.745-.293-5.606-.531-6.463-.828-12.814-2.11-18.384-5.738-3.371-2.196-3.791-3.955-2.075-7.813Zm-12.101,7.539c-4.114,2.812-4.283,5.888-.952,9,4.309,4.025,9.821,5.758,15.252,7.558,.499,.166,1.324-.65,2.663-1.366-1.974-.69-2.979-.949-3.903-1.381-3.637-1.703-7.393-3.217-10.823-5.273-2.869-1.72-4.36-4.426-2.238-8.537Zm40.008,116.903c.828,2.319,10.927,1.748,15.189-.798-5.242,.275-10.184,.535-15.189,.798Z" style="fill: #fff;"/>
      <path d="M448.307,207.016c.155-.905,.283-1.65,.506-2.948,7.618,9.767,10.635,20.466,10.496,32.336-10.353-11.296-20.73-22.455-34.397-29.876,9.712,10.565,17.049,23.285,29.215,31.609-.016,.306-.031,.613-.047,.919-4.653,.24-9.353,1.015-13.952,.62-14.909-1.279-26.82-8.651-36.746-19.436-5.626-6.113-10.267-12.934-13.126-20.859,.642-.296,1.168-.538,1.795-.826-3.72-5.666-6.216-11.519-6.336-18.328,6.205-.861,11.783,.294,16.171,2.794,1.666-.549,2.564-1.155,3.392-1.07,7.73,.792,14.127,4.256,19.304,10.001,.601,.667,.989,1.528,1.475,2.299,.262-.215,.524-.431,.786-.646-.329-1.426-.658-2.852-.99-4.292,6.249-.232,14.046,5.909,22.453,17.702Z" style="fill: #fff;"/>
      <path d="M543.925,198.618c.072,.774,.485,1.754,.162,2.29-3.524,5.85-6.648,12.043-10.88,17.343-8.515,10.665-19.617,17.676-33.061,20.703-6.363,1.433-14.626,1.189-19.461-.686,12.224-8.389,19.739-20.879,29.253-31.573-13.48,7.393-23.777,18.435-34.049,29.658-.401-11.923,2.931-22.521,10.367-32.44,.302,.897,.423,1.256,.543,1.614,.099,.294,.196,.588,.408,1.224,5.01-9.199,12.19-15.13,22.441-18.205-.564,2.093-.955,3.545-1.346,4.998,6.472-6.871,14.025-11.138,23.565-11.944v2.092c5.534-3.385,11.343-4.276,17.638-3.509-.468,6.714-2.686,12.678-6.405,18.128,.275,.102,.549,.203,.824,.305Z" style="fill: #fff;"/>
      <path d="M574.435,232.349c-1.058,.706-1.752,1.168-3.188,2.126,6.88-.173,12.655,1.085,18.091,4.691-5.698,5.577-10.872,11.468-19.659,12.34,.753,.684,1.316,1.194,1.905,1.729-13.267,7.872-34.956,6.233-45.881-3.52,10.078-1.925,19.345-5.694,29.023-10.707-8.219,1.304-15.55,2.732-22.948,3.565-7.355,.828-14.79,1.447-22.095-.47,8.846-4.709,17.569-9.554,26.499-13.984,2.761-1.37,6.084-1.608,9.588-2.473-.181,1.135-.259,1.624-.275,1.726,4.254-.32,8.591-.646,13.415-1.008-.36,1.148-.52,1.656-.736,2.345,5.513,.465,11.053,.765,16.261,3.64Z" style="fill: #fff;"/>
      <path d="M363.61,233.962c-.729-.417-1.457-.834-2.276-1.302,3.873-2.552,10.918-4.077,16.247-3.615-.307-.68-.562-1.245-1.206-2.673,4.716,.291,8.988,.555,13.434,.829,.305-.161,1.017-.867,1.706-.846,5.736,.181,10.639,2.731,15.454,5.565,5.894,3.469,11.848,6.833,17.501,10.084-2.833,1.527-9.798,1.975-20.873,.657-7.142-.85-14.233-2.135-21.42-3.042,8.573,4.71,17.509,8.477,27.362,10.047-13.074,11.149-33.446,10.317-44.901,3.594,.66-.541,1.277-1.046,2.183-1.787-8.976-.49-14.286-6.184-19.581-12.082,4.354-3.406,9.507-4.939,16.371-5.43Z" style="fill: #fff;"/>
      <path d="M471.857,234.727h-8.187c-.281-6.719-.778-13.358-.786-19.997-.013-11.198,1.636-22.134,6.541-32.353,4.192-8.732,10.387-15.642,19.088-20.089,1.735-.887,3.651-1.546,5.56-1.931,2.444-.493,4.821,1.22,5.336,3.525,.56,2.509-.416,4.5-2.79,5.143-14.46,3.922-20.462,15.011-23.809,28.165-2.891,11.363-2.581,22.928-1.192,34.488,.111,.924,.147,1.858,.238,3.049Z" style="fill: #fff;"/>
      <path d="M472.789,253.88c-1.526,10.7-3.042,21.324-4.557,31.947-2.861-3.844-5.078-18.177-6.04-32.093-1.596,3.056-3.192,6.112-4.83,9.247-1.184-6.168,1.559-16.283,5.604-20.876,3.232-3.669,6.976-3.6,9.806,.536,4.283,6.259,5.689,13.313,5.099,21.463-1.921-3.865-3.56-7.162-5.082-10.224Z" style="fill: #fff;"/>
      <path d="M515.369,267.571c-7.273-3.718-14.545-7.437-21.818-11.155l-.574,.551c3.965,5.479,7.93,10.957,12.141,16.775-5.58-1.983-10.023-5.081-14.146-8.781-2.322-2.084-3.498-4.583-4.445-7.542-1.585-4.954-3.843-9.693-5.815-14.516,15.668,1.882,27.615,9.663,34.656,24.668Z" style="fill: #fff;"/>
      <path d="M455.696,242.84c-4.055,5.481-6.346,11.296-7.915,17.436-.179,.703-.49,1.46-.968,1.984-4.553,4.988-9.779,9.028-16.648,11.478,4.369-5.973,8.503-11.625,12.638-17.277-.17-.165-.339-.33-.509-.494-7.575,3.828-15.15,7.656-22.759,11.501,4.858-13.238,19.522-23.367,36.16-24.628Z" style="fill: #fff;"/>
      <path d="M438.951,666.225c5.735-3.711,43.838-4.748,55.119-1.617,.469,.13,.815,.707,1.742,1.555-19.377,2.686-37.989,2.684-56.862,.062Z" style="fill: #fff;"/>
    </g>
    <g>
      <path d="M102.089,261.992l-5.067,9.445,52.867,28.363c2.099,1.126,2.586,2.739,1.459,4.838l-3.448,6.428c-1.126,2.099-2.739,2.585-4.838,1.459l-52.867-28.364-5.067,9.445c-1.126,2.099-2.724,2.593-4.794,1.483l-6.427-3.448c-2.099-1.126-2.586-2.739-1.459-4.838l16.961-31.615c1.126-2.099,2.739-2.586,4.838-1.459l6.428,3.448c2.07,1.111,2.541,2.715,1.415,4.814Z" style="fill: #fff;"/>
      <path d="M178.704,262.006l-9.529,13.379c-2.226,3.126-5.332,5.036-9.32,5.73-3.986,.694-7.543-.073-10.669-2.299l-40.176-28.616c-3.098-2.206-4.981-5.324-5.645-9.352-.665-4.027,.106-7.59,2.313-10.69l9.5-13.338c2.207-3.098,5.332-5.005,9.375-5.72s7.627,.041,10.753,2.267l40.096,28.558c3.126,2.226,5.005,5.362,5.637,9.407,.632,4.045-.145,7.603-2.333,10.675Zm-11.721-8.349l-40.055-28.529-9.529,13.379,40.055,28.529,9.529-13.379Z" style="fill: #fff;"/>
      <path d="M216.353,218.485l-5.297,5.714c-1.079,1.164-2.38,1.448-3.901,.85l-29.375-11.67-2.901,3.13,20.67,19.163c1.747,1.619,1.81,3.302,.191,5.049l-4.96,5.349c-1.62,1.747-3.302,1.811-5.049,.191l-51.929-48.142c-1.747-1.62-1.81-3.303-.191-5.049l17.24-18.596c2.586-2.79,5.942-4.28,10.067-4.471s7.594,1.017,10.408,3.626l12.664,11.741c2.232,2.07,3.616,4.639,4.154,7.708s.249,5.96-.866,8.671l27.77,10.993c1.213,.493,1.947,1.331,2.202,2.515,.257,1.232-.041,2.308-.896,3.229Zm-42.145-22.493l-12.737-11.808-9.918,10.699,12.737,11.808,9.918-10.698Z" style="fill: #fff;"/>
      <path d="M241.479,193.738l-36.077-20.133,23.85,28.637c1.524,1.83,1.371,3.507-.459,5.032l-5.529,4.605c-1.83,1.525-3.507,1.372-5.032-.458l-45.317-54.413c-1.524-1.831-1.372-3.508,.459-5.032l7.245-6.034c1.22-1.016,2.559-1.14,4.015-.374l36.146,20.139-23.881-28.675c-1.524-1.831-1.372-3.507,.459-5.032l5.491-4.572c1.83-1.525,3.507-1.372,5.032,.458l45.286,54.375c1.503,1.805,1.352,3.459-.453,4.962l-7.213,6.072c-1.25,1.084-2.591,1.232-4.022,.443Z" style="fill: #fff;"/>
      <path d="M286.045,165.366l-17.036,11.033c-3.165,2.05-6.601,2.679-10.307,1.886-3.706-.793-6.584-2.772-8.634-5.937l-32.99-50.94c-1.295-1.999-.942-3.646,1.057-4.941l25.283-16.374c1.999-1.295,3.646-.942,4.941,1.057l3.965,6.123c1.277,1.972,.915,3.604-1.084,4.899l-16.203,10.494,9.442,14.578,13.536-8.767c2-1.295,3.646-.942,4.941,1.057l3.965,6.123c1.295,2,.943,3.646-1.057,4.941l-13.536,8.767,9.441,14.578,16.452-10.656c2-1.295,3.646-.942,4.941,1.057l3.939,6.081c1.295,1.999,.942,3.646-1.057,4.941Z" style="fill: #fff;"/>
      <path d="M318.634,148.542l-14.756,7.214c-3.448,1.685-7.088,1.883-10.924,.59-3.835-1.292-6.596-3.661-8.282-7.109l-21.665-44.313c-1.67-3.417-1.839-7.055-.502-10.912,1.336-3.857,3.713-6.621,7.131-8.292l14.712-7.193c3.418-1.67,7.074-1.856,10.969-.557,3.894,1.3,6.684,3.674,8.369,7.121l21.621,44.223c1.686,3.448,1.842,7.1,.468,10.956-1.373,3.857-3.754,6.613-7.142,8.27Zm-6.32-12.928l-21.599-44.179-14.756,7.214,21.599,44.179,14.756-7.214Z" style="fill: #fff;"/>
      <path d="M381.124,60.673l12.774,47.386c1.007,3.737,.464,7.378-1.63,10.924s-4.961,5.809-8.602,6.79l-25.777,6.949c-2.3,.62-3.76-.22-4.38-2.519l-18.431-68.372c-.62-2.3,.22-3.76,2.52-4.379l25.729-6.936c3.673-.989,7.31-.462,10.911,1.582,3.601,2.045,5.896,4.904,6.887,8.577Zm-1.108,51.179l-12.8-47.481-15.38,4.146,12.799,47.481,15.381-4.146Z" style="fill: #fff;"/>
      <path d="M433.607,116.886l-20.087,2.904c-3.733,.54-7.117-.325-10.152-2.593s-4.823-5.27-5.362-9.002l-8.683-60.065c-.341-2.358,.668-3.706,3.026-4.047l29.811-4.309c2.358-.341,3.707,.667,4.048,3.025l1.043,7.219c.336,2.325-.674,3.658-3.032,3.999l-19.105,2.762,2.485,17.189,15.962-2.307c2.358-.341,3.706,.667,4.047,3.025l1.044,7.219c.341,2.358-.667,3.706-3.025,4.047l-15.962,2.308,2.484,17.189,19.4-2.805c2.358-.341,3.706,.668,4.047,3.026l1.037,7.17c.341,2.358-.667,3.706-3.025,4.047Z" style="fill: #fff;"/>
      <path d="M494.543,115.743l-18.404-.445c-3.771-.091-6.971-1.508-9.602-4.252-2.631-2.744-3.901-6.001-3.81-9.772l1.465-60.671c.058-2.381,1.277-3.543,3.659-3.485l7.293,.176c2.381,.057,3.543,1.277,3.485,3.658l-1.449,59.977,17.711,.428c2.348,.057,3.493,1.275,3.436,3.657l-.175,7.243c-.057,2.381-1.26,3.543-3.609,3.487Z" style="fill: #fff;"/>
      <path d="M535.956,117.932l-.723-14.755-14.922-2.211-4.972,13.912c-.673,1.84-1.976,2.616-3.907,2.33l-7.314-1.084c-1.145-.17-1.998-.731-2.559-1.684-.599-.924-.699-1.942-.299-3.054l24.418-67.968c.64-1.844,1.926-2.624,3.857-2.338l14.236,2.109c1.931,.286,2.951,1.407,3.063,3.363l3.612,72.12c.027,1.175-.365,2.12-1.173,2.836-.845,.745-1.808,1.037-2.889,.876l-7.363-1.091c-1.963-.291-2.986-1.412-3.064-3.363Zm-1.46-29.412l-1.196-23.755-8.033,22.388,9.229,1.367Z" style="fill: #fff;"/>
      <path d="M579.644,131.583l-13.921-4.021c-3.687-1.065-6.524-3.373-8.51-6.926-1.988-3.552-2.444-7.188-1.37-10.907l.759-2.622c.66-2.288,2.119-3.107,4.376-2.454l7.008,2.024c2.288,.661,3.102,2.136,2.441,4.424l-.757,2.622,13.968,4.035,4.821-16.686-13.921-4.021c-3.687-1.065-6.522-3.381-8.503-6.95-1.983-3.568-2.441-7.195-1.376-10.882l4.833-16.734c1.055-3.655,3.375-6.472,6.959-8.449s7.219-2.435,10.907-1.369l13.92,4.021c3.654,1.056,6.473,3.368,8.456,6.936,1.982,3.568,2.445,7.18,1.39,10.835l-.662,2.288c-.652,2.257-2.106,3.059-4.361,2.407l-7.009-2.024c-2.288-.661-3.107-2.119-2.454-4.376l.646-2.241-13.968-4.035-4.819,16.686,13.968,4.035c3.654,1.056,6.473,3.368,8.456,6.936,1.982,3.568,2.445,7.18,1.39,10.835l-4.86,16.829c-1.075,3.718-3.398,6.544-6.968,8.473-3.57,1.931-7.183,2.367-10.837,1.311Z" style="fill: #fff;"/>
      <path d="M674.94,102.876l-17.246-8.562-7.722,15.557,14.445,7.172c2.103,1.044,2.626,2.633,1.567,4.766l-3.244,6.534c-1.059,2.134-2.641,2.678-4.745,1.634l-14.445-7.172-12.534,25.246c-1.059,2.134-2.655,2.67-4.789,1.612l-6.533-3.244c-2.134-1.059-2.67-2.656-1.613-4.788l26.966-54.314c1.677-3.378,4.314-5.678,7.915-6.902,3.599-1.223,7.102-.989,10.509,.703l17.868,8.87c2.133,1.059,2.67,2.656,1.611,4.789l-3.244,6.534c-1.045,2.104-2.633,2.626-4.766,1.567Z" style="fill: #fff;"/>
      <path d="M686.47,184.947l-6.514-4.272c-1.329-.87-1.825-2.105-1.489-3.705l6.618-30.908-3.569-2.34-15.455,23.571c-1.306,1.992-2.954,2.335-4.946,1.029l-6.101-3.999c-1.992-1.306-2.335-2.955-1.029-4.947l38.828-59.218c1.306-1.992,2.954-2.335,4.946-1.029l21.206,13.904c3.182,2.085,5.21,5.146,6.085,9.181,.875,4.036,.261,7.658-1.844,10.867l-9.469,14.442c-1.67,2.546-3.972,4.338-6.909,5.379-2.937,1.041-5.836,1.238-8.694,.59l-6.216,29.212c-.285,1.277-.989,2.141-2.114,2.59-1.171,.458-2.283,.343-3.333-.346Zm15.165-45.301l9.523-14.524-12.2-7.999-9.523,14.524,12.2,7.999Z" style="fill: #fff;"/>
      <path d="M717.586,210.629l-15.528-13.07c-2.886-2.428-4.49-5.531-4.815-9.306-.324-3.775,.727-7.106,3.157-9.992l39.081-46.431c1.534-1.822,3.212-1.966,5.034-.433l23.045,19.397c1.822,1.534,1.966,3.212,.432,5.034l-4.697,5.581c-1.513,1.797-3.181,1.928-5.003,.395l-14.768-12.431-11.184,13.288,12.339,10.385c1.822,1.534,1.966,3.212,.432,5.034l-4.697,5.581c-1.534,1.823-3.212,1.967-5.034,.433l-12.339-10.385-11.185,13.288,14.996,12.622c1.822,1.534,1.966,3.212,.433,5.034l-4.667,5.543c-1.533,1.822-3.211,1.966-5.033,.433Z" style="fill: #fff;"/>
      <path d="M742.014,235.56l-9.925-10.558c-2.628-2.797-3.891-6.229-3.788-10.298,.101-4.069,1.564-7.429,4.384-10.08l1.989-1.87c1.735-1.631,3.406-1.591,5.016,.12l4.996,5.315c1.631,1.735,1.58,3.419-.155,5.05l-1.989,1.869,9.958,10.594,12.655-11.896-9.925-10.557c-2.628-2.797-3.885-6.235-3.77-10.316,.114-4.081,1.57-7.434,4.366-10.062l12.691-11.93c2.772-2.606,6.204-3.845,10.296-3.719,4.092,.127,7.451,1.588,10.08,4.384l9.925,10.558c2.605,2.772,3.851,6.198,3.737,10.278-.115,4.081-1.558,7.424-4.33,10.03l-1.737,1.631c-1.711,1.609-3.371,1.557-4.98-.154l-4.996-5.315c-1.631-1.735-1.591-3.407,.121-5.016l1.698-1.598-9.958-10.594-12.655,11.895,9.959,10.594c2.605,2.772,3.851,6.198,3.736,10.278-.114,4.081-1.557,7.424-4.329,10.03l-12.764,11.997c-2.82,2.651-6.259,3.896-10.314,3.736-4.056-.16-7.387-1.628-9.992-4.399Z" style="fill: #fff;"/>
      <path d="M776.314,274.596l10.1-10.781-8.789-12.261-13.455,6.103c-1.791,.795-3.254,.399-4.391-1.187l-4.307-6.01c-.674-.942-.865-1.944-.57-3.01,.248-1.074,.91-1.854,1.986-2.34l65.823-29.72c1.771-.822,3.225-.441,4.363,1.146l8.384,11.696c1.136,1.586,1.041,3.1-.287,4.54l-49.315,52.749c-.826,.836-1.777,1.213-2.853,1.13-1.124-.091-2.003-.58-2.639-1.467l-4.336-6.05c-1.156-1.613-1.062-3.127,.287-4.54Zm20.119-21.504l16.238-17.379-21.673,9.797,5.435,7.582Z" style="fill: #fff;"/>
      <path d="M796.904,315.456l-6.804-12.794c-1.802-3.389-2.119-7.033-.951-10.931,1.166-3.9,3.46-6.757,6.877-8.575l2.411-1.281c2.103-1.119,3.706-.641,4.808,1.434l3.425,6.44c1.119,2.103,.626,3.713-1.477,4.832l-2.41,1.282,6.827,12.837,15.336-8.154-6.804-12.794c-1.802-3.389-2.112-7.036-.93-10.944s3.468-6.761,6.855-8.563l15.38-8.178c3.358-1.786,6.995-2.081,10.91-.884,3.915,1.196,6.772,3.489,8.575,6.877l6.804,12.794c1.785,3.358,2.087,6.992,.905,10.899-1.182,3.907-3.453,6.754-6.811,8.54l-2.103,1.119c-2.075,1.103-3.663,.617-4.765-1.456l-3.425-6.441c-1.119-2.103-.642-3.706,1.433-4.808l2.059-1.095-6.827-12.838-15.334,8.155,6.827,12.837c1.785,3.359,2.087,6.992,.905,10.899s-3.453,6.754-6.811,8.54l-15.467,8.224c-3.418,1.817-7.062,2.116-10.933,.896-3.871-1.22-6.7-3.51-8.485-6.869Z" style="fill: #fff;"/>
    </g>
    <g>
      <path d="M331.273,875.952l-5.859-2.264c-1.913-.74-2.501-2.066-1.761-3.979l21.983-56.876c.739-1.915,2.066-2.501,3.979-1.762l5.859,2.266c1.913,.739,2.501,2.066,1.761,3.978l-21.983,56.877c-.74,1.912-2.066,2.499-3.979,1.761Z" style="fill: #fff;"/>
      <path d="M376.178,890.494l-6.429-1.916c-1.31-.391-2.025-1.287-2.142-2.689l-2.167-27.133-3.522-1.049-6.934,23.259c-.586,1.966-1.862,2.656-3.827,2.07l-6.02-1.794c-1.966-.586-2.656-1.863-2.07-3.828l17.419-58.437c.587-1.966,1.862-2.655,3.828-2.069l20.926,6.238c3.138,.935,5.568,2.961,7.286,6.074,1.717,3.114,2.103,6.253,1.159,9.42l-4.247,14.251c-.749,2.511-2.206,4.56-4.373,6.142-2.167,1.584-4.508,2.462-7.026,2.632l2.079,25.634c.081,1.124-.288,2.009-1.105,2.658-.853,.669-1.798,.847-2.836,.538Zm1.332-41.115l4.273-14.332-12.039-3.59-4.273,14.333,12.039,3.589Z" style="fill: #fff;"/>
      <path d="M419.789,896.702l-.304-12.718-12.798-2.226-4.581,11.868c-.619,1.57-1.758,2.209-3.412,1.921l-6.273-1.091c-.982-.171-1.705-.672-2.167-1.504-.496-.808-.56-1.688-.192-2.636l22.49-57.981c.592-1.574,1.715-2.217,3.372-1.929l12.208,2.123c1.655,.288,2.511,1.276,2.565,2.963l1.548,62.161c-.003,1.012-.359,1.818-1.071,2.415-.744,.624-1.578,.854-2.505,.693l-6.315-1.099c-1.684-.292-2.539-1.279-2.565-2.96Zm-.622-25.352l-.516-20.476-7.398,19.098,7.915,1.377Z" style="fill: #fff;"/>
      <path d="M467.829,880.961l-12.457-.716-1.131,19.666c-.118,2.047-1.186,3.014-3.205,2.899l-6.272-.362c-2.047-.118-3.013-1.199-2.896-3.248l3.503-60.875c.118-2.049,1.201-3.014,3.248-2.896l21.799,1.255c3.243,.185,6.057,1.595,8.446,4.229,2.387,2.636,3.487,5.602,3.298,8.901l-1.119,19.452c-.191,3.329-1.625,6.157-4.297,8.486-2.675,2.327-5.647,3.399-8.916,3.209Zm.84-12.364l1.124-19.536-12.584-.726-1.125,19.539,12.585,.723Z" style="fill: #fff;"/>
      <path d="M514.739,903.18l-13.658,.684c-3.302,.164-6.258-.921-8.871-3.258-2.612-2.337-4.001-5.154-4.165-8.455l-2.582-51.642c-.101-2.049,.871-3.122,2.92-3.225l6.231-.312c2.047-.101,3.124,.87,3.225,2.92l2.581,51.596,13.87-.693-2.579-51.598c-.101-2.047,.855-3.122,2.877-3.222l6.272-.315c2.049-.103,3.125,.873,3.227,2.919l2.579,51.555c.165,3.329-.964,6.296-3.386,8.898s-5.27,3.985-8.54,4.148Z" style="fill: #fff;"/>
      <path d="M567.007,894.122l-4.501-11.897-12.813,2.144-.385,12.712c-.064,1.687-.927,2.669-2.584,2.947l-6.281,1.049c-.982,.165-1.831-.068-2.542-.7-.736-.599-1.088-1.407-1.055-2.424l1.99-62.157c.036-1.681,.884-2.661,2.541-2.937l12.223-2.046c1.657-.278,2.792,.371,3.402,1.945l22.073,58.131c.334,.957,.264,1.835-.208,2.635-.496,.834-1.209,1.329-2.136,1.484l-6.322,1.057c-1.685,.282-2.819-.365-3.402-1.943Zm-8.991-23.709l-7.276-19.147-.647,20.471,7.923-1.325Z" style="fill: #fff;"/>
      <path d="M596.375,833.47l-8.941,2.297,12.853,50.035c.512,1.988-.228,3.235-2.211,3.747l-6.085,1.564c-1.988,.509-3.235-.228-3.746-2.216l-12.855-50.038-8.94,2.297c-1.986,.51-3.231-.214-3.736-2.174l-1.561-6.082c-.51-1.986,.228-3.235,2.213-3.746l29.924-7.686c1.988-.51,3.235,.228,3.746,2.214l1.561,6.082c.505,1.96-.238,3.194-2.223,3.706Z" style="fill: #fff;"/>
      <path d="M647.074,873.461l-13.23,5c-3.093,1.169-6.231,1.045-9.416-.372-3.184-1.414-5.358-3.669-6.527-6.76l-15.015-39.732c-1.159-3.064-1.011-6.196,.446-9.394,1.456-3.201,3.716-5.379,6.78-6.537l13.191-4.985c3.063-1.158,6.214-1.025,9.45,.402,3.232,1.426,5.435,3.687,6.601,6.778l14.986,39.652c1.168,3.091,1.009,6.235-.479,9.432-1.487,3.197-3.75,5.368-6.788,6.516Zm-4.38-11.592l-14.971-39.612-13.231,5,14.971,39.612,13.231-5Z" style="fill: #fff;"/>
    </g>
    <path d="M45.901,437.403h17.374v2.482c-1.325,0-2.449,.431-3.376,1.291-.927,.861-1.456,1.953-1.588,3.276v65.326c.132,1.258,.628,2.3,1.489,3.127,.859,.828,2.018,1.307,3.475,1.439v2.482h-17.374v-2.482c1.39,0,2.564-.479,3.525-1.439s1.439-2.134,1.439-3.525v-64.929c-.133-1.192-.645-2.217-1.538-3.078-.894-.859-2.035-1.355-3.425-1.489v-2.482Zm14.892,0h17.374v2.482c-1.325,0-2.449,.431-3.376,1.291-.927,.861-1.456,1.953-1.588,3.276v65.326c.132,1.258,.628,2.3,1.489,3.127,.859,.828,2.018,1.307,3.475,1.439v2.482h-17.374v-2.482c1.389,0,2.564-.479,3.524-1.439,.959-.959,1.44-2.134,1.44-3.525v-64.929c-.133-1.192-.645-2.217-1.539-3.078-.893-.859-2.035-1.355-3.425-1.489v-2.482Zm14.892,0h17.374v2.482c-1.325,0-2.449,.431-3.376,1.291-.927,.861-1.456,1.953-1.588,3.276v65.326c.132,1.258,.628,2.3,1.489,3.127,.86,.828,2.018,1.307,3.475,1.439v2.482h-17.374v-2.482c1.39,0,2.564-.479,3.525-1.439s1.439-2.134,1.439-3.525v-64.929c-.133-1.192-.645-2.217-1.538-3.078-.894-.859-2.035-1.355-3.425-1.489v-2.482Z" style="fill: #fff;"/>
    <path d="M848.901,437.403h17.375v2.482c-1.326,0-2.449,.431-3.376,1.291-.927,.861-1.457,1.953-1.588,3.276v65.326c.131,1.258,.627,2.3,1.489,3.127,.86,.828,2.019,1.307,3.476,1.439v2.482h-17.375v-2.482c1.39,0,2.564-.479,3.525-1.439,.958-.959,1.44-2.134,1.44-3.525v-64.929c-.134-1.192-.646-2.217-1.54-3.078-.893-.859-2.035-1.355-3.425-1.489v-2.482Zm14.892,0h17.373v2.482c-1.325,0-2.449,.431-3.375,1.291-.928,.861-1.456,1.953-1.588,3.276v65.326c.133,1.258,.629,2.3,1.49,3.127,.858,.828,2.017,1.307,3.473,1.439v2.482h-17.373v-2.482c1.39,0,2.565-.479,3.523-1.439,.96-.959,1.44-2.134,1.44-3.525v-64.929c-.133-1.192-.644-2.217-1.538-3.078-.894-.859-2.035-1.355-3.425-1.489v-2.482Zm14.892,0h17.373v2.482c-1.325,0-2.449,.431-3.375,1.291-.928,.861-1.457,1.953-1.588,3.276v65.326c.131,1.258,.627,2.3,1.489,3.127,.86,.828,2.019,1.307,3.475,1.439v2.482h-17.373v-2.482c1.389,0,2.564-.479,3.525-1.439,.958-.959,1.439-2.134,1.439-3.525v-64.929c-.133-1.192-.646-2.217-1.538-3.078-.894-.859-2.036-1.355-3.425-1.489v-2.482Z" style="fill: #fff;"/>
    <circle cx="31.05" cy="479.27" r="10.22" style="fill: #fff;"/>
    <circle cx="104.05" cy="479.27" r="10.22" style="fill: #fff;"/>
    <circle cx="835.51" cy="477.81" r="10.22" style="fill: #fff;"/>
    <circle cx="908.51" cy="477.81" r="10.22" style="fill: #fff;"/>
  </g>
</svg>